<?xml version="1.0" standalone="no"?><!DOCTYPE svg PUBLIC "-//W3C//DTD SVG 1.1//EN" "http://www.w3.org/Graphics/SVG/1.1/DTD/svg11.dtd"><svg t="1563268439733" class="icon" viewBox="0 0 1024 1024" version="1.1" xmlns="http://www.w3.org/2000/svg" p-id="1403" xmlns:xlink="http://www.w3.org/1999/xlink" width="128" height="128"><defs><style type="text/css"></style></defs><path d="M850.538343 895.516744c-11.494799 0-22.988574-4.386914-31.763424-13.161764L141.103692 204.669426c-17.548678-17.534352-17.548678-45.992497 0-63.525825 17.548678-17.548678 45.977147-17.548678 63.525825 0l677.671227 677.685553c17.548678 17.534352 17.548678 45.992497 0 63.525825C873.526917 891.128807 862.032118 895.516744 850.538343 895.516744z" p-id="1404" fill="#ADADAD"></path><path d="M172.867116 895.516744c-11.494799 0-22.988574-4.386914-31.763424-13.161764-17.548678-17.534352-17.548678-45.992497 0-63.525825l677.671227-677.685553c17.548678-17.548678 45.977147-17.548678 63.525825 0 17.548678 17.534352 17.548678 45.992497 0 63.525825L204.629517 882.354979C195.85569 891.128807 184.360891 895.516744 172.867116 895.516744z" p-id="1405" fill="#ADADAD"></path></svg>