<?xml version="1.0" standalone="no"?><!DOCTYPE svg PUBLIC "-//W3C//DTD SVG 1.1//EN" "http://www.w3.org/Graphics/SVG/1.1/DTD/svg11.dtd"><svg t="1563437153695" class="icon" viewBox="0 0 1024 1024" version="1.1" xmlns="http://www.w3.org/2000/svg" p-id="30181" xmlns:xlink="http://www.w3.org/1999/xlink" width="128" height="128"><defs><style type="text/css"></style></defs><path d="M512 85.333333C276.48 85.333333 85.333333 276.48 85.333333 512s191.146667 426.666667 426.666667 426.666667 426.666667-191.146667 426.666667-426.666667S747.52 85.333333 512 85.333333z m42.666667 725.333334h-85.333334v-85.333334h85.333334v85.333334z m88.32-330.666667l-38.4 39.253333C573.866667 550.4 554.666667 576 554.666667 640h-85.333334v-21.333333c0-46.933333 19.2-89.6 49.92-120.746667l52.906667-53.76c15.786667-15.36 25.173333-36.693333 25.173333-60.16 0-46.933333-38.4-85.333333-85.333333-85.333333s-85.333333 38.4-85.333333 85.333333H341.333333c0-94.293333 76.373333-170.666667 170.666667-170.666667s170.666667 76.373333 170.666667 170.666667c0 37.546667-15.36 71.68-39.68 96z" p-id="30182" fill="#ADADAD"></path></svg>