<?xml version="1.0" standalone="no"?><!DOCTYPE svg PUBLIC "-//W3C//DTD SVG 1.1//EN" "http://www.w3.org/Graphics/SVG/1.1/DTD/svg11.dtd"><svg t="1563426522075" class="icon" viewBox="0 0 1024 1024" version="1.1" xmlns="http://www.w3.org/2000/svg" p-id="12811" xmlns:xlink="http://www.w3.org/1999/xlink" width="128" height="128"><defs><style type="text/css"></style></defs><path d="M983.38965 312.969643A511.807286 511.807286 0 0 0 0 512.046442a511.953558 511.953558 0 0 0 511.953558 511.953558c283.037182 0 511.953558-228.916377 511.953559-511.953558 0-94.784545-40.517467-199.076798-40.517467-199.076799zM76.28108 512.046442c0-54.267077 10.165935-106.705749 28.011173-154.31743 23.257319 13.091384 53.608851 15.431743 53.608852 41.687647 0 85.788789 2.998585 178.159838 85.861925 179.403154 2.413495 0 45.856412 15.504879 66.773371 66.700235 7.094214 17.918375 35.763613 0 66.700235 0 15.504879 0 0 25.085724 0 78.694575 0 53.608851 121.625538 135.887102 121.625539 135.887102-0.58509 35.105387 1.17018 64.359876 3.583675 87.032105C266.435259 942.965065 76.28108 749.739165 76.28108 512.046442z m540.549822 422.581094c17.333285-69.186867 25.597678-108.461018 61.434427-137.715507 51.853582-42.272737 6.58226-89.957554-33.423254-84.61861-31.594848 4.753854-11.336115-36.348703-39.347288-38.762198-27.352947-1.755269-64.359876-54.193941-103.707163-72.697405-20.843823-9.507709-42.272737-35.105387-74.452675-36.348703-28.596263-1.17018-70.942136 23.257319-70.942136 4.753855 0-60.191111-6.58226-103.122074-7.75244-120.382223-1.17018-14.261563-9.507709-4.753854 29.254489-3.583675 20.843823 0.58509 10.677889-40.517467 32.179938-42.272736 20.258734-1.243316 69.69882 18.430328 82.790204 10.092798 11.336115-7.75244 85.861925 184.742098 85.861926 31.594848 0-17.845238-9.507709-49.440087 0-66.700235 39.347288-68.016687 75.69599-123.380808 72.697405-131.718337-1.828406-4.826991-40.517467-8.410666-70.357046 1.17018-10.092799 2.925449 2.998585 18.430328-11.336115 22.014003-56.022347 11.921204-104.292253-14.261563-87.032105-39.274152 17.333285-25.597678 81.693161-10.751025 87.032105-62.019516 2.998585-28.596263 5.99717-62.604607 7.75244-87.617195a434.721707 434.721707 0 0 1 340.37598 271.189113c-147.808306 107.875928-110.289424 183.571919-61.434427 226.502882 25.597678 22.672229 50.098313 57.192526 66.188282 81.620024-51.268492 135.302012-164.556501 239.594265-305.709411 274.772789z" fill="#ADADAD" p-id="12812"></path></svg>