<?xml version="1.0" standalone="no"?><!DOCTYPE svg PUBLIC "-//W3C//DTD SVG 1.1//EN" "http://www.w3.org/Graphics/SVG/1.1/DTD/svg11.dtd"><svg t="1563271686689" class="icon" viewBox="0 0 1024 1024" version="1.1" xmlns="http://www.w3.org/2000/svg" p-id="6783" xmlns:xlink="http://www.w3.org/1999/xlink" width="128" height="128"><defs><style type="text/css"></style></defs><path d="M994.336367 582.351858l-434.039894 208.614949c-29.544993 19.342995-66.919984 19.342995-96.464976 0L29.739603 582.351858C8.211608 559.004864-2.487389 526.836871 0.49061 494.407879c28.990993 17.751996 69.743983 37.463991 68.195983 36.429991l443.325892 218.525947 443.324892-218.525947c0.774 0 40.28799-21.454995 68.195983-36.429991 2.725999 32.385992-7.915998 64.439984-29.196993 87.943979z m0-218.525947L560.296473 572.43986c-29.544993 19.341995-66.919984 19.341995-96.464976 0L29.790603 363.825911C13.999607 351.976914 4.619609 332.789919 4.619609 312.338924s9.379998-39.63799 25.171994-51.486988L463.830497 15.806996c29.055993-21.075995 67.408984-21.075995 96.464976 0l434.039894 245.04494c15.369996 12.153997 24.416994 31.241992 24.416994 51.513988 0 20.271995-9.047998 39.35999-24.416994 51.513987v-0.054zM512.063485 57.409986c2.320999 0.871 3.197999 4.029999-0.051 0.054l0.051-0.054z m0 910.479778L955.390377 749.363817c0.773 0 40.28799-21.509995 68.195983-36.429991 2.711999 32.393992-7.949998 64.448984-29.249993 87.943978l-434.039894 208.61495c-29.543993 19.342995-66.919984 19.342995-96.463976 0L29.790603 800.877804C8.262608 777.52981-2.435389 745.362818 0.54061 712.933826c28.991993 17.751996 69.743983 37.409991 68.196983 36.429991L512.063485 967.889764z" p-id="6784" fill="#ADADAD"></path></svg>