<?xml version="1.0" standalone="no"?><!DOCTYPE svg PUBLIC "-//W3C//DTD SVG 1.1//EN" "http://www.w3.org/Graphics/SVG/1.1/DTD/svg11.dtd"><svg t="1563427183808" class="icon" viewBox="0 0 1024 1024" version="1.1" xmlns="http://www.w3.org/2000/svg" p-id="1982" xmlns:xlink="http://www.w3.org/1999/xlink" width="128" height="128"><defs><style type="text/css"></style></defs><path d="M243.2 976.896a51.3024 51.3024 0 0 1-50.688-59.904l46.592-272.896L40.96 451.072a51.712 51.712 0 0 1-12.8-52.736c6.144-18.432 22.016-31.744 41.472-34.816l273.92-39.936L465.92 75.264c8.704-17.408 26.624-28.16 46.08-28.16s37.376 11.264 46.08 28.672l122.368 248.32 273.92 39.936a51.0464 51.0464 0 0 1 28.672 87.04l-198.144 193.536 46.592 272.896c3.072 19.456-4.608 38.4-20.48 50.176-15.872 11.776-36.864 12.8-53.76 4.096L512 842.24l-245.248 129.024a47.104 47.104 0 0 1-23.552 5.632zM512 733.184c8.192 0 16.384 2.048 24.064 6.144l177.152 93.184-33.792-197.12c-3.072-16.384 2.56-33.792 14.848-45.056l143.36-139.776-198.144-28.672a50.0224 50.0224 0 0 1-38.4-28.16L512 214.016l-88.576 179.2c-7.68 14.848-22.016 25.6-38.4 28.16l-198.144 28.672 143.36 139.776a51.2 51.2 0 0 1 14.848 45.056l-33.792 197.12 177.152-93.184c7.168-3.584 15.36-5.632 23.552-5.632z" fill="#ADADAD" p-id="1983"></path></svg>