<?xml version="1.0" standalone="no"?><!DOCTYPE svg PUBLIC "-//W3C//DTD SVG 1.1//EN" "http://www.w3.org/Graphics/SVG/1.1/DTD/svg11.dtd"><svg t="1563427874425" class="icon" viewBox="0 0 1024 1024" version="1.1" xmlns="http://www.w3.org/2000/svg" p-id="29211" xmlns:xlink="http://www.w3.org/1999/xlink" width="128" height="128"><defs><style type="text/css"></style></defs><path d="M535.12 442.432v210.016a16 16 0 0 1-16 16h-16.16a16 16 0 0 1-16-16V440.208l-32.88 32.864a16 16 0 0 1-11.312 4.688h-28.304a14.464 14.464 0 0 1-10.24-24.688l97.824-97.808a11.136 11.136 0 0 1 15.744 0l97.808 97.808a14.464 14.464 0 0 1-10.24 24.688h-28.288a16 16 0 0 1-11.312-4.688l-30.64-30.64zM512 800c159.056 0 288-128.944 288-288s-128.944-288-288-288-288 128.944-288 288 128.944 288 288 288z m0 48c-185.568 0-336-150.432-336-336s150.432-336 336-336 336 150.432 336 336-150.432 336-336 336z" p-id="29212" fill="#ADADAD"></path></svg>